<svg width="18" height="19" viewBox="0 0 18 19" fill="none" xmlns="http://www.w3.org/2000/svg">
<path d="M13.125 0C14.2853 0 15.3981 0.460936 16.2186 1.28141C17.0391 2.10188 17.5 3.21468 17.5 4.375V11.375C17.5 12.5353 17.0391 13.6481 16.2186 14.4686C15.3981 15.2891 14.2853 15.75 13.125 15.75H0.875C0.642936 15.75 0.420376 15.6578 0.256282 15.4937C0.0921872 15.3296 0 15.1071 0 14.875V4.375C0 3.21468 0.460936 2.10188 1.28141 1.28141C2.10188 0.460936 3.21468 0 4.375 0H13.125ZM13.125 1.75H4.375C3.67881 1.75 3.01113 2.02656 2.51884 2.51884C2.02656 3.01113 1.75 3.67881 1.75 4.375V14H13.125C13.8212 14 14.4889 13.7234 14.9812 13.2312C15.4734 12.7389 15.75 12.0712 15.75 11.375V4.375C15.75 3.67881 15.4734 3.01113 14.9812 2.51884C14.4889 2.02656 13.8212 1.75 13.125 1.75ZM6.125 6.125C6.35706 6.125 6.57962 6.21719 6.74372 6.38128C6.90781 6.54538 7 6.76794 7 7V8.75C7 8.98206 6.90781 9.20462 6.74372 9.36872C6.57962 9.53281 6.35706 9.625 6.125 9.625C5.89294 9.625 5.67038 9.53281 5.50628 9.36872C5.34219 9.20462 5.25 8.98206 5.25 8.75V7C5.25 6.76794 5.34219 6.54538 5.50628 6.38128C5.67038 6.21719 5.89294 6.125 6.125 6.125ZM11.375 6.125C11.5893 6.12503 11.7962 6.20371 11.9563 6.34613C12.1165 6.48854 12.2188 6.68478 12.2439 6.89763L12.25 7V8.75C12.2498 8.97302 12.1644 9.18753 12.0113 9.3497C11.8582 9.51187 11.6489 9.60946 11.4263 9.62253C11.2036 9.6356 10.9844 9.56316 10.8134 9.42002C10.6424 9.27688 10.5325 9.07383 10.5061 8.85237L10.5 8.75V7C10.5 6.76794 10.5922 6.54538 10.7563 6.38128C10.9204 6.21719 11.1429 6.125 11.375 6.125Z" fill="black"/>
</svg>
